<svg xmlns="http://www.w3.org/2000/svg" viewBox="0 0 500 500"><g id="freepik--City--inject-3"><polygon id="freepik--city--inject-3" points="26.36 339.69 26.36 133.62 60.1 114.13 85.42 128.75 85.42 179.31 98.08 172 98.08 152.51 110.74 145.21 110.74 71.03 148.72 49.1 165.6 58.85 165.6 81.62 182.48 71.87 199.36 81.62 199.36 123.85 216.24 133.57 216.24 93.07 233.12 83.33 254.22 95.51 254.22 144.23 275.31 132.05 275.31 54.09 300.63 39.47 330.17 56.53 330.17 119.78 342.83 127.09 342.83 152.7 359.71 162.44 359.71 74.84 380.81 62.65 406.13 77.27 406.13 98.08 418.79 105.39 418.79 161.6 435.67 171.34 435.67 133.31 460.98 118.69 473.64 126 473.64 339.69 26.36 339.69" style="fill:#f0f0f0"></polygon></g><g id="freepik--Clouds--inject-3"><path id="freepik--Cloud--inject-3" d="M28.65,76.76A7.18,7.18,0,0,1,31,76.32c.78-.06,1-.21,1.17-.38a5.68,5.68,0,0,1,6.82-2A4.35,4.35,0,0,1,44.16,71c-.08-2.4,3-5,5.73-5.56s4.94-.33,6.44,1.41c1.61-3.15,7.93-4,11.35-2.37,2,1,3.63,1.94,4.45,3.74a7.61,7.61,0,0,1,.74,3.58,6.29,6.29,0,0,1,5.77-.8c1.92.74,2.07,2.18,2.16,3.65a6.78,6.78,0,0,1,3.49-.06C85.5,75,86.2,75.92,86,76.68c1-.05,3.24.72,3,1.73s-2.89,1-3.86,1A18.23,18.23,0,0,1,82.42,79a4.32,4.32,0,0,1-1.42.27c-1.65,0-2.35-.72-2.62-1.34-.81,1.7-3.68,3-5.72,3.52-3.83,1-9.25.38-11.6-2.48a4.43,4.43,0,0,1-1.15,1.39,6.53,6.53,0,0,1-3.54,1.43c-1.57.15-5.79.35-7-2.15-.84,1.67-4.6,2.42-7.46,2a11.77,11.77,0,0,1-3.2-1,20.33,20.33,0,0,1-1.84-1.1,1.5,1.5,0,0,0-1.56-.11,9.34,9.34,0,0,1-6.24,0C27.49,78.77,27.16,77.44,28.65,76.76Z" style="fill:#f5f5f5"></path><path id="freepik--cloud--inject-3" d="M190.67,46.65a7.53,7.53,0,0,1,2.48-.46c.8-.06,1-.22,1.21-.4a5.91,5.91,0,0,1,7.09-2.09,4.54,4.54,0,0,1,5.35-3c-.09-2.49,3.1-5.17,6-5.78s5.13-.34,6.7,1.47c1.67-3.27,8.24-4.2,11.8-2.47,2,1,3.78,2,4.62,3.9a7.78,7.78,0,0,1,.77,3.72,6.58,6.58,0,0,1,6-.84c2,.78,2.15,2.28,2.25,3.81a7,7,0,0,1,3.63-.07c1.26.38,2,1.36,1.81,2.16,1-.06,3.36.75,3.09,1.8s-3,1.06-4,1a19.9,19.9,0,0,1-2.83-.44,4.38,4.38,0,0,1-1.47.27c-1.72,0-2.45-.75-2.73-1.39-.84,1.77-3.83,3.12-5.95,3.66-4,1-9.62.4-12.07-2.58a4.42,4.42,0,0,1-1.19,1.45,6.86,6.86,0,0,1-3.68,1.49c-1.64.16-6,.37-7.26-2.23-.88,1.72-4.79,2.51-7.76,2.09a12.36,12.36,0,0,1-3.33-1c-.78-.38-1.22-.74-1.91-1.15a1.58,1.58,0,0,0-1.63-.11,9.76,9.76,0,0,1-6.49,0C189.46,48.74,189.12,47.35,190.67,46.65Z" style="fill:#f5f5f5"></path><path id="freepik--cloud--inject-3" d="M417.79,87.19a6.43,6.43,0,0,1,2.1-.39c.68,0,.89-.19,1-.33a5,5,0,0,1,6-1.78,3.85,3.85,0,0,1,4.54-2.57c-.08-2.11,2.62-4.39,5-4.91s4.36-.28,5.69,1.25c1.42-2.78,7-3.56,10-2.09,1.74.84,3.21,1.71,3.93,3.3a6.71,6.71,0,0,1,.65,3.16,5.55,5.55,0,0,1,5.1-.71c1.69.66,1.82,1.93,1.91,3.23a5.94,5.94,0,0,1,3.08-.06c1.06.32,1.68,1.16,1.53,1.83.85,0,2.86.64,2.63,1.53s-2.56.9-3.42.87a16.55,16.55,0,0,1-2.4-.38,3.61,3.61,0,0,1-1.25.24c-1.46,0-2.08-.64-2.31-1.18-.72,1.5-3.25,2.64-5.05,3.1-3.38.87-8.16.34-10.24-2.18a3.88,3.88,0,0,1-1,1.22,5.85,5.85,0,0,1-3.13,1.27c-1.39.13-5.11.31-6.16-1.9-.74,1.47-4.06,2.14-6.58,1.78a10.56,10.56,0,0,1-2.83-.85,17.82,17.82,0,0,1-1.62-1,1.36,1.36,0,0,0-1.39-.09,8.24,8.24,0,0,1-5.5,0C416.76,89,416.47,87.79,417.79,87.19Z" style="fill:#f5f5f5"></path><path id="freepik--cloud--inject-3" d="M362.51,47.45a6.34,6.34,0,0,1,2.1-.39c.68-.05.89-.19,1-.33a5,5,0,0,1,6-1.78,3.84,3.84,0,0,1,4.54-2.57c-.07-2.12,2.63-4.39,5.06-4.91s4.36-.28,5.69,1.25c1.42-2.78,7-3.56,10-2.09,1.73.84,3.21,1.71,3.93,3.3a6.71,6.71,0,0,1,.65,3.16,5.55,5.55,0,0,1,5.1-.71c1.69.65,1.82,1.93,1.9,3.23a6,6,0,0,1,3.09-.06c1.06.32,1.68,1.16,1.53,1.83.84,0,2.86.64,2.62,1.53s-2.55.9-3.41.87a16.55,16.55,0,0,1-2.4-.38,3.65,3.65,0,0,1-1.25.24c-1.46,0-2.08-.64-2.31-1.18-.72,1.5-3.26,2.64-5,3.1-3.38.87-8.16.34-10.25-2.19a3.65,3.65,0,0,1-1,1.23A5.85,5.85,0,0,1,387,51.87c-1.39.13-5.11.31-6.16-1.9-.75,1.47-4.06,2.13-6.59,1.78a10.26,10.26,0,0,1-2.82-.86,15.77,15.77,0,0,1-1.62-1,1.36,1.36,0,0,0-1.39-.09,8.24,8.24,0,0,1-5.5,0C361.48,49.23,361.18,48.05,362.51,47.45Z" style="fill:#f5f5f5"></path></g><g id="freepik--Shadows--inject-3"><path id="freepik--Shadow--inject-3" d="M354.68,265.29l97.95,56.3c13.82,8,12.18,21.8-3.67,31L292.2,442.82C212.93,488.7,80.61,393.4,144,357.87L308.13,263C324,253.8,340.86,257.34,354.68,265.29Z" style="opacity:0.15"></path><ellipse id="freepik--shadow--inject-3" cx="82.53" cy="319.78" rx="42.38" ry="24.47" style="opacity:0.15"></ellipse><ellipse id="freepik--shadow--inject-3" cx="199.29" cy="274.61" rx="42.38" ry="24.47" style="opacity:0.15"></ellipse></g><g id="freepik--character-2--inject-3"><g id="freepik--Character--inject-3"><g id="freepik--Chartacter--inject-3"><g id="freepik--Bottom--inject-3"><path d="M193,257.35l1-10.72-12.67-1.34s.56,8.46.51,12.34a23.74,23.74,0,0,1-1.24,5.28s5,2.69,7.59,1.57,4.27-5.42,4.2-6.2Z" style="fill:#ffa8a7"></path><path d="M166.23,276a2.49,2.49,0,0,0,.76,2.52,12.18,12.18,0,0,0,9,1.84c4.25-.8,6.5-2.29,8.14-3.87s3.93-3.79,5.84-4.33a13.94,13.94,0,0,0,4.69-2.75c.54-.61.33-3.16.33-3.16Z" style="fill:#263238"></path><path d="M193.1,256.33s.23.11.38.69.42,2.74.76,3.88a21.23,21.23,0,0,1,.75,6.19c-.16,1.32-3.5,3.08-5.34,3.92a23.89,23.89,0,0,0-5.86,4.29,16.93,16.93,0,0,1-8.86,4c-3.31.15-7.09-.76-8-2.29-1.16-1.91-2-4.14,2.72-6.75.91-.49,4.06-2.66,5.13-3.44,2.9-2.11,4.92-4,6.12-7.55a1.87,1.87,0,0,1,.65-1.09,1.46,1.46,0,0,1,.95-.14,30.26,30.26,0,0,1,4.86.69c.68.29,1.63.62,1.66,1.49a3,3,0,0,1-.14.89c-.05.18-.08.42.08.52s.33,0,.45-.16a12.37,12.37,0,0,0,1.23-1.71,15.06,15.06,0,0,1,1.18-1.55,7.08,7.08,0,0,0,.81-.6A2,2,0,0,0,193.1,256.33Z" style="fill:#455a64"></path><path d="M183.79,275.3a31.29,31.29,0,0,1,2.56-2.2h0s-5.57,3.93-8,2.41a2.2,2.2,0,0,1-.89-2.72c0-.41-5.44-3-6.91-3.13h0a9.92,9.92,0,0,1-.93.57c-3.74,1.79-4.14,3.85-3.37,6.38.94,1.54,4.34,3,8.61,2.77C177.67,279.22,181.86,277.12,183.79,275.3Z" style="fill:#37474f"></path><path d="M177.81,271.56c-3,1.43-1.65,1.94-.79,2s5.82-3.28,8.81-6,5.48-6.55,6.64-7.6c.43-.38.89-.86,1.3-1.3-.12-.69-.21-1.32-.29-1.65-.15-.58-.38-.69-.38-.69a3.73,3.73,0,0,1-.49,1.24,7.08,7.08,0,0,1-.81.6,15.06,15.06,0,0,0-1.18,1.55,12.37,12.37,0,0,1-1.23,1.71C186.91,265.06,180.79,270.14,177.81,271.56Z" style="fill:#37474f"></path><path d="M177.21,273.11a.29.29,0,0,0,.19-.08.31.31,0,0,0,0-.44c-.91-1-5.13-3.41-7.35-3a.31.31,0,0,0,.09.61c2.08-.34,6.09,2,6.82,2.84A.31.31,0,0,0,177.21,273.11Z" style="fill:#263238"></path><path d="M179.78,271.28a.33.33,0,0,0,.18-.08.31.31,0,0,0,0-.44c-.91-1-5.13-3.41-7.36-3a.31.31,0,0,0,.1.61c2.08-.34,6.09,2,6.82,2.84A.31.31,0,0,0,179.78,271.28Z" style="fill:#263238"></path><path d="M182.35,269.54a.36.36,0,0,0,.19-.08.32.32,0,0,0,0-.44c-.92-1-5.13-3.41-7.36-3a.31.31,0,0,0-.25.36.3.3,0,0,0,.35.26c2.08-.34,6.08,2,6.81,2.83A.29.29,0,0,0,182.35,269.54Z" style="fill:#263238"></path><path d="M184.72,267.58a.33.33,0,0,0,.18-.08.31.31,0,0,0,0-.44c-.91-1.05-5.14-3.41-7.36-3a.32.32,0,0,0-.25.36.31.31,0,0,0,.35.26c2.08-.34,6.09,2,6.82,2.84A.31.31,0,0,0,184.72,267.58Z" style="fill:#263238"></path><path d="M187,265.62a.29.29,0,0,0,.19-.08.32.32,0,0,0,0-.44c-1.26-1.48-5.64-3.41-7.87-3a.3.3,0,0,0-.25.35.31.31,0,0,0,.35.26c2-.33,6.2,1.52,7.32,2.84A.28.28,0,0,0,187,265.62Z" style="fill:#263238"></path><path d="M214.83,261.77l-2.91-13.17,12.39-2.08.27,13s1,3.5.28,4.7-8.14,2.51-8.82,1.71S214.83,261.77,214.83,261.77Z" style="fill:#ffa8a7"></path><path d="M216.19,282.55c.34,2.95.95,4.86,2.17,6.46s3.41,1.86,5.56,1.06,4.85-2.54,5.34-5.2a15.13,15.13,0,0,0-.37-7.09Z" style="fill:#263238"></path><path d="M224.58,259.53c.9,0,.67,2.28,1.12,6.26.48,4.31,2.36,7.69,3,11.14.77,3.95.64,5.78-.75,8.41s-6.63,5.74-9.46,2.61c-2.31-2.56-2.56-5.7-2.58-9.74a95.92,95.92,0,0,0-.33-10.25c-.34-3-1.55-5.75-.79-6.19.08.44.87,3.46,1.37,3.41a5.32,5.32,0,0,0,0-1.13,1.38,1.38,0,0,1,.19-1,4.36,4.36,0,0,1,1.44-.78c.88-.28,2.44-.62,3.33-.82a12.1,12.1,0,0,1,1.34-.23,4,4,0,0,1,1.14,0,.7.7,0,0,1,.51.34,1.39,1.39,0,0,1,.07.46,2.76,2.76,0,0,0,.15.81c0,.11.14.25.26.2a.26.26,0,0,0,.14-.26C224.7,262.27,224.61,259.79,224.58,259.53Z" style="fill:#455a64"></path><path d="M228.47,275.82c.12.56.85,4.34-.24,5.18s-2-2-2-2-2.9-.43-7,1.81c.25.6-.28,2.74-1.45,2.45s-1.83-4.62-1.84-4.68c0,3.87.33,6.91,2.57,9.39,2.83,3.13,8.07,0,9.46-2.61s1.52-4.46.74-8.41A11.3,11.3,0,0,0,228.47,275.82Z" style="fill:#37474f"></path><path d="M225.91,279.28c.1,1.45,1.61.76,1.57-1.31s-1.1-7.06-1.51-10.44c-.29-4.85-.49-8-1.39-8a.76.76,0,0,1,0,.15s.11,2.76.13,3.08c.18,3,.25,8.72.66,11.4A42.19,42.19,0,0,1,225.91,279.28Z" style="fill:#37474f"></path><path d="M219.73,280.69a44.29,44.29,0,0,1-1.12-5c-.45-2.65-2-7.95-2.76-10.8-.24-.47-1-3.13-1-3.13-.62.19,0,2.73.32,3.92s.66,2.46,1,4.16c.95,3.36,1.07,8.41,1.68,10.34S220.1,282.08,219.73,280.69Z" style="fill:#37474f"></path><path d="M219.17,280.92l.12-.05a11.8,11.8,0,0,1,6.86-1.58.37.37,0,0,0,.4-.27.28.28,0,0,0-.26-.35,12.44,12.44,0,0,0-7.34,1.69.32.32,0,0,0-.11.44A.3.3,0,0,0,219.17,280.92Z" style="fill:#263238"></path><path d="M218.26,277.86l.11,0a14.62,14.62,0,0,1,7.68-1.77.38.38,0,0,0,.39-.28.29.29,0,0,0-.27-.34,15.16,15.16,0,0,0-8.12,1.87.31.31,0,0,0-.13.43A.29.29,0,0,0,218.26,277.86Z" style="fill:#263238"></path><path d="M225.68,273.08a.38.38,0,0,0,.27-.24.29.29,0,0,0-.23-.37c-4.08-.73-7.95,1.7-8.11,1.8a.32.32,0,0,0-.12.44.35.35,0,0,0,.45.07s3.8-2.38,7.6-1.69Z" style="fill:#263238"></path><path d="M225.3,270.28a.35.35,0,0,0,.27-.23.29.29,0,0,0-.22-.37,11.45,11.45,0,0,0-8.28,1.79.32.32,0,0,0-.09.44.34.34,0,0,0,.46,0,10.93,10.93,0,0,1,7.71-1.67A.26.26,0,0,0,225.3,270.28Z" style="fill:#263238"></path><path d="M224.86,267.14a.35.35,0,0,0,.27-.23.28.28,0,0,0-.22-.37c-4.21-.89-8.16,1.77-8.33,1.89a.31.31,0,0,0-.1.44.34.34,0,0,0,.46.05s3.86-2.6,7.77-1.77A.26.26,0,0,0,224.86,267.14Z" style="fill:#263238"></path><path d="M220.94,152.57c1.32,12.56,2.17,19.54,1.87,36-.11,6.24.1,13.17.16,19.41a40.53,40.53,0,0,0,.1,5.62c.52,3.24.84,5.25,1.38,9.22.33,2.41.49,5.46.65,7.88.24,3.64-.1,7.33.63,10.9a34.81,34.81,0,0,1,.83,4,6.57,6.57,0,0,1-.16,2.21c-.2.72-1.45,2.43-1.67,3.08a11.72,11.72,0,0,0,0,3.4s-6.52,3.35-11.5,1.52a11.84,11.84,0,0,0-.8-3.15c-.35-.53-1.94-1.81-2.38-2.34a4.84,4.84,0,0,1-1-1.93,18.2,18.2,0,0,1-.27-3.05c-.21-2.4-1.28-4.62-2-6.91-2-6.16-1.67-12.7-2.92-19-1.69-8.51-2.5-13.89-3.45-20S197,211.55,197,211.56a20.31,20.31,0,0,0,.15,3.3c.09,2.15,0,4.27.3,6.39a46.71,46.71,0,0,1-.37,14.21,26.22,26.22,0,0,0-.71,6.65c.08,1.47.33,2.77-.23,4.13a39.4,39.4,0,0,1-1.92,3.5c-.21.38-.22,3.32-.44,3.47,0,0-6.89,4.1-12.08-.32a13.37,13.37,0,0,0-.34-3.32c-.9-1-2.27-2.83-2.37-4.3s.31-2.4.31-3.79a46,46,0,0,0-.45-5.09,60.85,60.85,0,0,1-.27-7.27,38.27,38.27,0,0,0,.06-6.42,91.09,91.09,0,0,1-.7-10.58c-.41-13.73,1-41.59,1.31-59.31Z" style="fill:#455a64"></path><path d="M196.76,175l4,27c-.13-.83-.26-1.66-.39-2.51-1-6.07-3.39,12.08-3.39,12.08l.62-11.86a50.62,50.62,0,0,0-.74-11.06L194.52,177a13.37,13.37,0,0,1-8-6.38C189.61,173.75,196.76,175,196.76,175Z" style="fill:#263238"></path><path d="M224.85,254.78c-2.22,1.84-7.26,3.18-11.72,1.51l-.92-3.93a15.87,15.87,0,0,0,12.54-1.78Z" style="fill:#263238"></path><path d="M193.77,253.66c-1.49,1.61-8,2.37-12.09-.14l-.33-4c3.13,1.81,9.81,2.06,12.86.17Z" style="fill:#263238"></path><path d="M222.73,191.36s.39,17.87.35,19.16-9.87,4-10.11,3.19c-.4-1.36-.32-4.39-1.2-19C219.35,193.64,222.73,191.36,222.73,191.36Z" style="fill:#37474f"></path><path d="M213.23,199.72a2.74,2.74,0,0,1,.86-.08c.34,0,.67,0,1-.06a15.06,15.06,0,0,0,2.1-.34,16,16,0,0,0,2.31-.75c.61-.25,1.19-.58,1.8-.83.06,0,.07.1,0,.12a8.58,8.58,0,0,1-1.93,1,13,13,0,0,1-1.9.66,15.24,15.24,0,0,1-2.1.4c-.36,0-.71.07-1.07.08a2.23,2.23,0,0,1-1.12-.07S213.17,199.74,213.23,199.72Z" style="fill:#263238"></path><path d="M217.1,197.69a.48.48,0,0,0,.16.41.61.61,0,0,0,.65,0,.68.68,0,0,0,.32-.67.58.58,0,0,0-.22-.4.67.67,0,0,0-.47-.12c-.19,0-.26.14-.35.32A1,1,0,0,0,217.1,197.69Zm.37-.4a.35.35,0,0,1,.26-.07c.28,0,.33.5.1.65a.37.37,0,0,1-.46-.09A.41.41,0,0,1,217.47,197.29Z" style="fill:#263238"></path></g><g id="freepik--Top--inject-3"><g id="freepik--Arm--inject-3"><path d="M186.12,109.92c-7.2,1.26-22.58,4.36-22.58,4.36s-4.35,7.41-3.51,14.7c4.24,1.4,12.16-.32,23.54-2.17Z" style="fill:#455a64"></path><path d="M186.55,88.1a26.29,26.29,0,0,0-1-4.63c-.12-.46-.94-1.27-1.46-1.15s-.47.87-.54,1.29c-.14.86-.44,1.71-.63,2.56-.38,1.71-.71,3.44-1,5.17a20.64,20.64,0,0,1-.72,3.58,18.48,18.48,0,0,1-5.37,7.6c-5.26,4.35-6.94,5.66-12.28,10.21a17.49,17.49,0,0,0-5.29,9.41c-1,4.33.13,7.12,3,7a12.94,12.94,0,0,0,9.2-3.91c3.34-3.21,6.17-8.12,7.35-9.8,2.46-3.53,4.44-6.81,7.2-9.84a11.35,11.35,0,0,0,1.65-2.08c1.34-2.43-.19-5.68-.36-8.24-.14-2.07.28-4.14.23-6.21C186.61,88.78,186.58,88.44,186.55,88.1Z" style="fill:#ffa8a7"></path><path d="M186.39,95.32c-.14-2.07.28-4.14.23-6.21,0-.33,0-.67-.07-1a26.29,26.29,0,0,0-1-4.63,2,2,0,0,0-1.13-1.11,11.27,11.27,0,0,0-.61,4.46c0,.77.18,1.53.22,2.29a32.5,32.5,0,0,1-.26,4.29,25.83,25.83,0,0,0,.89,8.79,3.36,3.36,0,0,0,1.47,2.23,5.69,5.69,0,0,0,.59-.86C188.09,101.13,186.56,97.88,186.39,95.32Z" style="fill:#f28f8f"></path></g><path d="M217.91,111s5.13,4.17,4.86,13.77c-.22,7.35-1.78,15.49-1.84,18.63-.1,4.82.76,16.31.76,16.31-6.85,9-38.58,8.23-42.72.51,0,0-.16-24.89,1-37,.59-6.34,3.9-11.49,6.16-13.35A60.64,60.64,0,0,1,194,108.7c3.3-.36,12.22-.79,12.22-.79Z" style="fill:#DF44FF"></path><path d="M217.91,111c7.93,2.18,8.43,4.36,10.72,11.27,1.18,3.55,3.81,12.25,4.65,15,2.61,8.66,2.26,13.25-.41,14.85-3.05,1.83-16.08-19.55-16.08-19.55S211.15,116,217.91,111Z" style="fill:#455a64"></path><path d="M228,148c-.57-.75-1.21-1.65-1.88-2.61-3.24-5.09-9.32-12.73-9.32-12.73s-.68-2-1.3-4.81c2.37,1.69,11.87,8,14.53,10.74,2.88,2.94,2.94,5.28,3.47,8Z" style="fill:#263238"></path><path d="M217.49,130.77c-2.88-2-3.9-2.54-5.84-5.06a34.52,34.52,0,0,0-5.23-5.21c-1.44-1.3-2.23-3.29-3-4.19-.53-.62-1.42.26-1.38,1.73a7,7,0,0,0,1.53,3.51c.91,1.28.37,1.07-.91.73a44.76,44.76,0,0,0-7.12-.93c-1.34,0-2.66.34-2.57,1.19,0,0-2.07-.46-2.32.63s1.24,2.09,1.24,2.09-.2.91,1.35,1.67c.88.42,3.59,1.19,4.54,1.57s2.24,1,2.24,1-3.65-.63-4.83-.63c-1.35,0-1.29.95.17,1.78s5.88,1.38,7.12,2.08a17.42,17.42,0,0,0,4.9,1.71,5.3,5.3,0,0,1,3.31,2.26c1.34,1.81,7.51,8.38,9,10.47a13.92,13.92,0,0,0,6.24,4.64c3.29,1.36,6.28.84,7,.29s1.34-2.65.34-6.13c-1.32-4.58-2.15-5.52-5-7.88C225.19,135.52,219,131.83,217.49,130.77Z" style="fill:#ffa8a7"></path><path d="M203.58,121.55c.55.77.57,1,.21,1h0c.5.1,1.49.41,1.65,0s-.75-1.08-1.65-1.9a6.81,6.81,0,0,1-1.74-2.61A7,7,0,0,0,203.58,121.55Z" style="fill:#f28f8f"></path><path d="M193,122.54a41.61,41.61,0,0,1,6.11.74,16.83,16.83,0,0,1,2.46.67,23.58,23.58,0,0,1,2.37.91c-.83-.13-1.65-.29-2.47-.47s-1.63-.4-2.42-.53-2.79-.52-3.6-.71S193.8,122.75,193,122.54Z" style="fill:#f28f8f"></path><path d="M191.9,125.26a.64.64,0,0,1,.1-.33.75.75,0,0,1,.3-.2,2,2,0,0,1,.69-.11,8,8,0,0,1,1.39.15c.9.16,2.93.55,3.83.76.45.12.89.23,1.34.38s.88.34,1.3.51c.85.35,1.7.71,2.54,1.11a27.48,27.48,0,0,1-2.67-.68c-.45-.13-.88-.3-1.3-.41s-.88-.24-1.32-.34c-.88-.22-2.91-.63-3.8-.87a12.49,12.49,0,0,0-1.31-.32C192.58,124.84,192.05,124.79,191.9,125.26Z" style="fill:#f28f8f"></path><path d="M202.68,130s-1.45-.52-2.27-.84-3.55-1-3.55-1h0c.22.07.75.22.93.29,1.09.44,2.24,1,2.24,1A24,24,0,0,1,202.68,130Z" style="fill:#f28f8f"></path><g id="freepik--Head--inject-3"><path d="M194.72,75.54c11-.91,14.82,4.17,16.21,9.24s-1.56,12.13-4.54,17.09L185.47,89.19C183.18,84.05,186.3,76.24,194.72,75.54Z" style="fill:#37474f"></path><path d="M184.79,95.3c.24,4.67,1.18,9.08,5.55,10.22a17.7,17.7,0,0,0,3.56.34l0,2.84c-2.1,3-.27,5.22,2,5.4,7.94.64,10.68-4.86,10.68-4.86L206.51,99s.8,1.21,2.8.35c1.54-.66,3.51-3.66,2.29-6.07a3,3,0,0,0-4.52-1.09c-.67.75-.8,1.93-1.9,1.8-.57-.06-1.18-.95-1.08-3-1.38-1.71-1.9-3.27-1.58-6.2-5.44-3.21-14.56-2.35-17-.3A69.53,69.53,0,0,0,184.79,95.3Z" style="fill:#ffa8a7"></path><path d="M193.9,105.86c5.09-.1,8.25-2.11,9.36-3.8a10.15,10.15,0,0,0,1.4-3.31s.21,2.59-.74,4c-1.93,2.87-4.34,4-10,4.54Z" style="fill:#f28f8f"></path><path d="M195.69,91.42c-.12.64.36.79,1,.9s1.14.13,1.25-.52a1.13,1.13,0,1,0-2.23-.38Z" style="fill:#263238"></path><path d="M199.14,89l-2.21-1.67a1.45,1.45,0,0,0,.28,2A1.36,1.36,0,0,0,199.14,89Z" style="fill:#263238"></path><path d="M188.51,86.88l-2.15,1.78a1.34,1.34,0,0,0,1.93.23A1.48,1.48,0,0,0,188.51,86.88Z" style="fill:#263238"></path><path d="M187.29,91.55c.1.64.61.64,1.23.55s1.11-.24,1-.88a1.14,1.14,0,1,0-2.25.33Z" style="fill:#263238"></path><path d="M189.05,95l3.59,1.58,1.07-7C192.38,89.1,190.68,92.34,189.05,95Z" style="fill:#f28f8f"></path><path d="M189.73,86.27a1.59,1.59,0,0,0-.28-.36,1.08,1.08,0,0,0-.8-.3c-.14,0-.05.2,0,.22l.2,0h0l.05,0,0,0h0l.14.09h0l0,0a.18.18,0,0,1,.07,0v0l0,0,.06.07,0,.06v0l0,0,0,.08,0,0s0,0,0,0,0,0,0,0v.05a.61.61,0,0,0,.05.18.19.19,0,0,0,.08.1s.09.07.13,0S189.82,86.44,189.73,86.27Z" style="fill:#b16668"></path><path d="M195.85,86.06a.93.93,0,0,0-.37.28,1.59,1.59,0,0,0-.25.33,1.27,1.27,0,0,0-.18.37.83.83,0,0,0-.06.21.38.38,0,0,0,0,.1v.07s0,.09,0,.13.14.16.19.07a.54.54,0,0,0,.07-.13l.05-.11.06-.19c.05-.11.1-.23.16-.34a1.94,1.94,0,0,1,.21-.29,1.64,1.64,0,0,0,.28-.31C196.09,86.14,196,86,195.85,86.06Z" style="fill:#b16668"></path><path d="M192.58,100.46c.59.39.95-.2,2-.63s2,.08,1.85-.78-1.73-1.41-2.76-1S191.92,100,192.58,100.46Z" style="fill:#b16668"></path><path d="M194.48,99.75l-.28.14a1.27,1.27,0,0,1,1.08-1.39,1,1,0,0,1,.88.2.92.92,0,0,1,.14.28C196.52,99.82,195.5,99.32,194.48,99.75Z" style="fill:#f28f8f"></path></g></g></g></g><g id="freepik--Bolts--inject-3"><polygon points="174.61 81.99 172.26 81.9 169.14 76.79 171.25 83.9 173.61 84.04 176.41 89.39 174.61 81.99" style="fill:#DF44FF"></polygon><polygon points="166.3 86.62 163.94 88.33 156.99 85.73 164.49 91.05 166.89 89.38 173.71 92.47 166.3 86.62" style="fill:#DF44FF"></polygon><polygon points="166.29 98.89 165.31 97.31 160.59 97.19 166.28 95.84 167.3 97.39 172.06 97.2 166.29 98.89" style="fill:#DF44FF"></polygon></g></g><g id="freepik--character-1--inject-3"><g id="freepik--chartacter--inject-3"><g id="freepik--bottom--inject-3"><polygon points="89 312.59 92.68 311.36 91.61 308.77 89.29 310.81 89 312.59"></polygon><path d="M85.56,305.67s-.25,2.43-.32,3.19,3,3.3,3.76,3.73l.29-1.78a14,14,0,0,1,1.68,3c.56,1.12,1.25,3.23,2.86,4.72C96.22,320.73,100,322,104,322.3s6.25-.56,7.41-1.39a2.74,2.74,0,0,0,1.32-2.91C112.48,317,85.56,305.67,85.56,305.67Z" style="fill:#263238"></path><path d="M112.07,315.77s-6.86-7-9.14-9.89a12.77,12.77,0,0,1-2.8-7H85.68c-.07.93-.17,1.82-.27,2.51-.23,1.48-.42,3.51.48,4.88a7.71,7.71,0,0,0,1.32,1.47,30.59,30.59,0,0,1,3,2.72c1.21,1.48,2.06,4.58,3.57,6.61s7.12,4,10.31,4.29c6.43.68,10.78-2.74,8.49-5.12C112.41,316.09,112.24,315.94,112.07,315.77Z" style="fill:#37474f"></path><path d="M68.08,320.67c-.65,5.9-3,10.14-5,11a6.37,6.37,0,0,1-7.68-3.25c-1.61-3.44-1.73-6.94-1.58-10.48Z" style="fill:#263238"></path><path d="M57,298.89c-.18,2.12-.33,3.69-.42,4.3-.78,5.11-2,8.6-2.57,12.34A20.81,20.81,0,0,0,55.18,326a7.42,7.42,0,0,0,6,4.91c1.55,0,3.16-.61,5.17-4.79,2.5-5.21,2.22-11,2.48-15.41a45.4,45.4,0,0,1,1.34-10.48c.1-.36.21-.8.34-1.31Z" style="fill:#37474f"></path><path d="M102.67,202.62a1.19,1.19,0,0,0-1.09-.64,4.44,4.44,0,0,0-3.47,1.39,1.22,1.22,0,0,0-.35,1.21c.12.27,13.64,34,14.09,35.09h0a0,0,0,0,0,0,0,2.65,2.65,0,0,0,4.89-2,0,0,0,0,0,0,0h0C116.51,237.1,102.77,202.89,102.67,202.62Z" style="fill:#263238"></path><path d="M98.11,203.37c-.76.9-.43,1.73.74,1.85a4.48,4.48,0,0,0,3.47-1.39c.76-.9.43-1.73-.74-1.85A4.44,4.44,0,0,0,98.11,203.37Z" style="fill:#455a64"></path><path d="M63.16,206.11C61,228.52,60,257.6,60,257.6a90.29,90.29,0,0,0-2.35,15.51c-.56,9.32-1,29.59-1,29.59s6.64,4.59,13,1.76c0,0,3.6-19.1,6.36-32.52,2.2-10.72,6.74-26.69,6.74-26.69l1.77,14.48A77.59,77.59,0,0,0,84,272.46c.29,5.45,1.71,26.71,1.71,26.71s8.46,5.7,14.58,0c0,0,2.66-33.68,3-40.23,1-15.93.49-36.49,0-52.22Z" style="fill:#455a64"></path><path d="M82.8,245.25l3.8-20s5.79-.67,9.11-3.31a10.19,10.19,0,0,1-7.66,5.49l-4.21,16.75.73,15.57Z" style="fill:#37474f"></path><path d="M101.39,243.68,100.68,229h0l.25,14.73c.14,5.25.25,10.5-.1,15.74l-1,15.74-.47,7.87L99,290.93l.69-7.86.63-7.86,1.15-15.73A151.39,151.39,0,0,0,101.39,243.68Zm-31,22.68-2.4,16.13-1.16,8.07-1.09,8.09,1.39-8,1.32-8c.86-5.37,1.72-10.74,2.52-16.11s1.5-10.78,2-16.2,1-10.84,1.27-16.27c-.54,5.41-1.07,10.83-1.71,16.22S71.15,261,70.34,266.36Z" style="fill:#37474f"></path><path d="M85.24,295.89c3.78,1.95,11.12,2.78,15.48,0l-.24,4.18c-3.76,3.19-10.66,3.55-15.24-.08Z" style="fill:#263238"></path><path d="M56.53,299.81c3.5,2.44,9.28,4.18,14,2l-.76,4.12c-4.12,2.66-9.31,2.34-13.4-1.87Z" style="fill:#263238"></path></g><g id="freepik--top--inject-3"><path d="M95.47,170.66l13.43,17.47c2.87,3.73,4.59,4.23,7.67,3.37s13.63-3.9,13.63-3.9l4.46-12-17.23,1.95s-9.59-13.37-12.4-16.85-4.69-5-6.47-6Z" style="fill:#b16668"></path><path d="M98.28,154.3c2.33,1,4.33,1.93,11.07,11.33l4.14,5.78c0,4.67-5.09,8.92-9.47,10.65l-9.2-11.41Z" style="fill:#455a64"></path><g id="freepik--head--inject-3"><g id="freepik--head--inject-3"><g id="freepik--head--inject-3"><path d="M67.2,124.15a6.6,6.6,0,0,1,3.37-3.67c.65-2.94,4.06-6.13,12.1-5.79,6,.25,8,2.52,9.9,6.08s1.16,9.37,1.16,9.37c-8,6.79-17.16,14.2-20.6,13.7-1.19-2.85-3-4.46-3.81-6.36A38.59,38.59,0,0,1,67,131.4,10.82,10.82,0,0,1,67.2,124.15Z" style="fill:#37474f"></path><path d="M70.72,140.18c1.82,1.33,3,0,3,0-.09,2.36-.07,3.43-.56,3.68l0,4.95a36.43,36.43,0,0,0,4.94,4c4.58,3,7.09,4.23,9.58,6.61a34.64,34.64,0,0,0-.87-10.94l0-1.38a13.94,13.94,0,0,0,1.74-.15c2.44-.27,4.23-1.13,5.16-3.69,1.38-3.85,1.24-11.15,0-17.6a5.27,5.27,0,0,0-1.13-2.82c-2-2.33-3.42,1.47-6,1.68-3.85.32-11.49-3.89-10.25,2.46a19.57,19.57,0,0,1,.2,6.58c0,.66-.28,1.26-.67,1.3-1.11.12-.78-1.39-1.49-2.21s-4-1.66-5.26.87A6,6,0,0,0,70.72,140.18Z" style="fill:#b16668"></path><path d="M92.47,128.33l-2.38-.67a1.18,1.18,0,0,1,1.48-.87A1.29,1.29,0,0,1,92.47,128.33Z" style="fill:#263238"></path><path d="M82.81,128.12l-2.19,1.13a1.19,1.19,0,0,1,.48-1.65A1.3,1.3,0,0,1,82.81,128.12Z" style="fill:#263238"></path><path d="M85.53,139.06l2.4.56a1.19,1.19,0,0,1-1.44.94A1.3,1.3,0,0,1,85.53,139.06Z" style="fill:#9a4a4d"></path><path d="M90.33,144.07c0-.08,0-.16-.07-.24a.26.26,0,0,0-.19-.19.12.12,0,0,0-.14.13s0,.09,0,.14V144a1.1,1.1,0,0,0,0,.18c0,.11,0,.21,0,.32a3.63,3.63,0,0,0-.1.66.24.24,0,0,0,.11.19s.14.07.19,0a1.25,1.25,0,0,0,.3-.79,1.45,1.45,0,0,0,0-.36A.68.68,0,0,0,90.33,144.07Z" style="fill:#9a4a4d"></path><path d="M81.56,132a1.15,1.15,0,1,0,1.12-1.17A1.15,1.15,0,0,0,81.56,132Z" style="fill:#263238"></path><path d="M90.2,131.43a1.15,1.15,0,1,0,1.13-1.17A1.16,1.16,0,0,0,90.2,131.43Z" style="fill:#263238"></path><path d="M93.75,130.39h0l.05,0Z" style="fill:#9a4a4d"></path><polygon points="93.73 130.4 93.74 130.39 93.74 130.39 93.73 130.4" style="fill:#9a4a4d"></polygon></g><path d="M75,141.34c.53,1.78,4.74,4.9,11.76,5.71l0,1.38s-5.08-.42-8-2.08C75.59,144.56,75.05,143.27,75,141.34Z" style="fill:#9a4a4d"></path></g><path d="M85.81,129.66c2.83,0,5.36,6.19,5.36,6.19l-4.32,1.38Z" style="fill:#9a4a4d"></path></g><path d="M69,150.71a89.21,89.21,0,0,0-10.61,5.34s1.27,20.22,2.08,26.91c1.83,15.25,1.7,20.79,1.7,20.79s9.24,7.19,30.5,4.87c11.67-1.27,10.63-7.2,10.63-7.2s.67-11.29,0-25.72c-.57-13.08-1.77-18.31-3.77-20.9-3.27-1.25-11.31-3.94-11.31-3.94s-.6,6.48-.57,8.51C84.83,155.49,69,150.71,69,150.71Z" style="fill:#37474f"></path><path d="M93.69,197.4q-.07-4.59-.42-9.17a149,149,0,0,0-2.44-18.1,86,86,0,0,0-2.45-9.89c0-.13-.26-.18-.23,0,.58,3,1.33,6,1.92,9s1.1,6,1.52,9a157.63,157.63,0,0,1,1.47,18c0,1.69.06,3.37,0,5.06s-.09,3.42,0,5.13c0,.22.38.36.41.1A75.84,75.84,0,0,0,93.69,197.4Z" style="fill:#263238"></path><path d="M73.14,146.25l.06,1.64c.2.93,1.84,1.91,7.84,5.79a29.75,29.75,0,0,1,6.63,5.69s-3.15-2.75-5-2c-2.1.79-4.2,2.48-5.2,2.47s-2.42-2.74-5.07-5.45c-2.24-2.28-3.38-3.64-3.38-3.64A29.32,29.32,0,0,1,73.14,146.25Z" style="fill:#455a64"></path><path d="M87.67,159.37c1.77-4.6,3.77-3.46,5.25-3.48.73,0-3.47-5.8-6.12-7.46Z" style="fill:#455a64"></path><polygon points="85.73 168.35 74.41 169.75 74.62 171.96 85.94 170.56 85.73 168.35" style="fill:#263238"></polygon><g id="freepik--Shield--inject-3"><path d="M101.46,161.66a.19.19,0,0,0-.07-.16h0l-.36-.24h0a.17.17,0,0,0-.16,0,2.51,2.51,0,0,1-2.42,0,4.11,4.11,0,0,1-.3-.29v0h0l-.08-.07-.37-.24h0c-.08-.05-.15,0-.19.08a5.47,5.47,0,0,1-2.78,3.17.42.42,0,0,0-.18.11.3.3,0,0,0-.08.24c.17,2.06,1.63,5.53,4,7,.14.1.28.2.43.29C101.67,168.9,101.67,164.1,101.46,161.66Z" style="fill:#ebebeb"></path><path d="M98.4,171.18c-2.33-1.44-3.79-4.9-4-7a.26.26,0,0,1,0-.15l.37.24a.41.41,0,0,0,0,.16A10.48,10.48,0,0,0,98.4,171.18Z" style="fill:#e0e0e0"></path><path d="M101.46,161.66c.21,2.44.21,7.24-2.62,9.81-2.38-1.41-3.86-4.92-4-7a.32.32,0,0,1,.09-.25.4.4,0,0,1,.18-.1A5.53,5.53,0,0,0,97.84,161a.13.13,0,0,1,.2-.09h0l.08.07h0v0a2.53,2.53,0,0,0,3.08.56c.07,0,.13-.05.17,0h0A.19.19,0,0,1,101.46,161.66Z" style="fill:#fafafa"></path><path d="M98,160.86a.13.13,0,0,0-.2.09,5.53,5.53,0,0,1-2.77,3.17.4.4,0,0,0-.18.1.32.32,0,0,0-.09.25c.18,2.08,1.66,5.59,4,7A22.5,22.5,0,0,0,98,160.86Z" style="fill:#f0f0f0"></path></g><path d="M91.3,207.46c-7.85.7-16.42.16-29.17-5l-.24,4.27c12.75,5.18,21.56,6,29.41,5.27s11.27-3.38,12.07-5l-.16-4.73C102.32,203.83,99.15,206.76,91.3,207.46Z" style="fill:#263238"></path><path d="M96.57,210c-.22,1.67-2.57,3-5.25,3.05s-4.66-1.35-4.44-3,2.57-3,5.25-3S96.79,208.36,96.57,210Z" style="fill:#DF44FF"></path><path d="M57.9,205.64c.4-2.57.8-3.78,2.17-3.35s5.44,2.14,7.27,3S69.46,206.49,69,210Z" style="fill:#455a64"></path><path d="M69.19,208.67c-.43.29-2.12.14-6.21-1.42a47.38,47.38,0,0,1-5-2.17s-1.82,9.3-.82,11.39a15.78,15.78,0,0,1,1.24,8.17c-.19,2.13.9,3.1,2.08,4.07s3.06.27,5.11-.69,2.44-3.42,3-10S69.19,208.67,69.19,208.67Z" style="fill:#37474f"></path><path d="M65.3,210.19c0-.09-.15-.26-.18-.11-.52,2.59-.82,5.24-1.14,7.86s-.58,5.13-.85,7.7a5.06,5.06,0,0,1-1.27,3.29s0,.19,0,.15a3.31,3.31,0,0,0,1.46-2.26A34.5,34.5,0,0,0,64,223c.34-2.73.68-5.47,1-8.21C65.05,213.28,65.23,211.74,65.3,210.19Z"></path><g id="freepik--writting-hand--inject-3"><path d="M109.18,176.14l4.5,2.36a.16.16,0,0,1,0,.29l-5,.87Z" style="fill:#ffa8a7"></path><path d="M113.64,178.79a.16.16,0,0,0,0-.29l-.88-.46h0a.84.84,0,0,1-.18.87l-.06.06Z" style="fill:#263238"></path><path d="M84.61,175.87l.47.08.56.09,23,3.62a2.6,2.6,0,0,0,.58-3.52l-22.94-3.62-1.08-.17C85.85,172.5,85.31,176,84.61,175.87Z" style="fill:#DF44FF"></path><path d="M86.38,176.16l1,.16c.3.06.59-.55.78-1.28.24-1,.15-2.17-.24-2.25l-.77-.12-.27,0c.4.08.48,1.28.24,2.25-.18.7-.46,1.29-.74,1.28h0Z" style="fill:#ebebeb"></path><path d="M86.64,176.2c.7.13,1.23-3.39.54-3.53l-1-.16c.69.13.16,3.65-.54,3.52Z" style="fill:#DF44FF"></path><path d="M84.61,175.87l1,.17c.68.13,1.23-3.26.6-3.52h0l-1-.16C85.85,172.5,85.31,176,84.61,175.87Z" style="fill:#ebebeb"></path><path d="M113.76,178.67l-.08-.17-4.06-.72L85.5,174c0-.07,0-.09,0-.07-.11,1-.45,2-.84,2l.47.08.56.09,23,3.62h0l5-.87A.14.14,0,0,0,113.76,178.67Z" style="opacity:0.15"></path><path d="M82.4,175.51l2.21.36c.3.06.59-.54.78-1.26.25-1,.17-2.17-.23-2.26h0L82.93,172c-.87-.13-1.36,1.6-1.16,2.71A.92.92,0,0,0,82.4,175.51Z" style="fill:#ffa8a7"></path><path d="M83.32,174.73a2.75,2.75,0,0,0,0-2.45.62.62,0,0,0-.49-.3c-.79.06-1.22,1.66-1,2.71a.91.91,0,0,0,.61.81C82.71,175.55,83.07,175.27,83.32,174.73Z" style="fill:#f28f8f"></path><path d="M95.73,174a3.48,3.48,0,0,1,3-.55c1.14.18,2.49-.28,2.79.12s-.06,1.34-.06,1.34Z" style="fill:#9a4a4d"></path></g><path d="M63.74,193.59A189.78,189.78,0,0,1,56.39,176c-2.69-7.53-4.57-15.88,2-19.37,5.9,2.15,8.78,6.51,11.17,13.46l4.81,14.72c4.45-1.41,9.77-2,15-4.58a4.36,4.36,0,0,0,1.69-2A4.18,4.18,0,0,1,92,177l1,.16c.59-.17,1.2-.3,1.74-.49,1.28-.45,3-1.19,4.31-1.6a20.81,20.81,0,0,1,7.89-1.44c.55,0,1.29.16,2,.26.54.08.27.78.08,1.06a3.34,3.34,0,0,1-1,.88,6.78,6.78,0,0,1-1.67.6.8.8,0,0,0-.41.23.59.59,0,0,0-.09.43c0,.15.09.3.13.44a2.46,2.46,0,0,1-.35,2.15c-.19.25-.42.46-.61.7a2.9,2.9,0,0,0-.44,1.08c-.14.47-.26.94-.41,1.4-.51,1.59-.91,1.82-2.75,3.12s-3.58,1.17-6.4,2.47-12.53,7.07-17.17,9C69.27,201.18,66.42,199.49,63.74,193.59Z" style="fill:#b16668"></path><path d="M58.36,156.05s-4.33,2.14-4.86,6.8,1.09,8.87,1.8,11.17c.94,3.07,4.74,12.76,4.74,12.76s5.2,2.8,13.79-5.18c0,0-2.93-9.92-4.28-13.33C66.38,160.27,62.09,156.56,58.36,156.05Z" style="fill:#455a64"></path><polygon points="62.84 180.8 59.68 181.73 57.9 175.76 61.06 174.83 62.84 180.8" style="fill:#DF44FF"></polygon><polygon points="66 179.87 62.84 180.8 61.06 174.83 64.21 173.89 66 179.87" style="fill:#fafafa"></polygon><polygon points="69.15 178.93 66 179.87 64.21 173.89 67.37 172.96 69.15 178.93" style="fill:#DF44FF"></polygon><polygon points="141.26 159.28 115.37 166.31 106.2 195.82 106.72 196.47 131.38 189.28 141.78 159.92 141.26 159.28" style="fill:#DF44FF"></polygon><polygon points="115.89 166.95 106.72 196.47 106.2 195.82 115.37 166.31 115.89 166.95" style="opacity:0.35000000000000003"></polygon><polygon points="141.78 159.92 115.89 166.95 106.72 196.47 131.38 189.28 141.78 159.92" style="opacity:0.25"></polygon><g style="opacity:0.1"><path d="M133.72,165.5l.29-1c.15-.54-1.35-.36-3.36.41L126,166c-2,.78-3.89,1.32-4,1.87l-.28,1Z"></path></g><path d="M135.56,161.06c.1-.34-.48-.31-1.3-.16l-1.49.39s.7-1.42-2.81-.74c-3.86.75-4.08,2.63-4.08,2.63a17,17,0,0,1-1.87.53c-1.29.31-1.44.55-1.57.89l-.23.63,13.19-3.58S135.46,161.4,135.56,161.06Z" style="fill:#37474f"></path><path d="M134.07,162.89c-1.24.46-1.75.68-2,1.53s-.35,1.37-.35,1.37l-6.89,2.14s.47-1.41.59-1.89-.76-.54-2-.09l.36-1.18,10.71-3.1Z" style="fill:#37474f"></path><path d="M134.07,165.55s.12-.45.28-1-1.35-.37-3.35.4l-4.66,1c-2,.77-3.9,1.32-4,1.86l-.28,1Z" style="fill:#37474f"></path><path d="M135.39,178a17,17,0,0,1-1.74,2.94c-.5.75-.49,1.66,0,1.92L132,187.64s.66.14,2.21-1.44a15.5,15.5,0,0,0,3.12-6.32c.39-1.68.76-4.71-.63-5.52Z" style="fill:#b16668"></path><g id="freepik--Hat--inject-3"><g id="freepik--hat--inject-3"><path d="M94.63,125.2c-.22.5-.49,1-.76,1.49-.1-.41-.18-.84-.3-1.26a.45.45,0,0,0,0-.11c0-.06,0-.17-.09-.28a2.12,2.12,0,0,0-.09-.31c0-.15-.08-.29-.12-.43a1.89,1.89,0,0,0-.06-.18L93,124a14.21,14.21,0,0,0-7.63-.92,24,24,0,0,0-9.82,4c-2.66,1.77-4.76,3.74-5.51,5.23a2.87,2.87,0,0,0-1.1,1.44,6,6,0,0,0-.25,2.58c-4.5-2.37-6.11-7.49-3.63-13.17,3.29-7.49,12.56-13.1,20.73-12.54S97.91,117.71,94.63,125.2Z" style="fill:#37474f"></path><path d="M69.17,130.46l-.81-2s2.61-7.13,11.57-10.34c8.77-3.14,12.18.53,12.18.53l.74,3.34s-4.46-1.83-12.12.89A27.68,27.68,0,0,0,69.17,130.46Z" style="fill:#DF44FF"></path><path d="M93.55,125.32c0-.06,0-.17-.09-.28a2.12,2.12,0,0,0-.09-.31c0-.15-.08-.29-.12-.43a1.89,1.89,0,0,0-.06-.18L93,124a14.21,14.21,0,0,0-7.63-.92,24,24,0,0,0-9.82,4c-2.66,1.77-4.76,3.74-5.51,5.23l-.89-1.86A19.75,19.75,0,0,1,74.89,125c9.9-6.39,16.64-3.67,18-3A17,17,0,0,1,93.55,125.32Z"></path><path d="M74.3,128a18.67,18.67,0,0,1,11.58-5.77c5.27-.44,8.2.92,9.28,1.6s.6,1.51-1.14,1.28a28.65,28.65,0,0,0-8.44-.48A28,28,0,0,0,74.3,128Z" style="fill:#455a64"></path></g><g id="freepik--shield--inject-3"><path d="M89,115.32a.12.12,0,0,0-.06-.12h0l-.29-.23h0a.14.14,0,0,0-.13,0,2.49,2.49,0,0,1-2-.46,1.55,1.55,0,0,1-.24-.27h0l-.06-.06-.3-.24h0c-.07,0-.12,0-.16,0a3.06,3.06,0,0,1-2.27,1.76.24.24,0,0,0-.15,0,.16.16,0,0,0-.06.16,9.29,9.29,0,0,0,3.23,5.69l.35.28C89.13,120.52,89.13,117.1,89,115.32Z" style="fill:#ebebeb"></path><path d="M86.45,121.55a9.3,9.3,0,0,1-3.22-5.68.16.16,0,0,1,0-.1l.3.24a.3.3,0,0,0,0,.1A9.42,9.42,0,0,0,86.45,121.55Z" style="fill:#e0e0e0"></path><path d="M89,115.32c.16,1.78.16,5.2-2.16,6.52a9.32,9.32,0,0,1-3.29-5.73.16.16,0,0,1,.07-.16.33.33,0,0,1,.15,0A3,3,0,0,0,86,114.16c0-.07.09-.08.16,0h0l.06.06h0a2.63,2.63,0,0,0,2.51,1,.16.16,0,0,1,.14,0h0A.12.12,0,0,1,89,115.32Z" style="fill:#fafafa"></path><path d="M86.17,114.13c-.07,0-.12,0-.16,0a3,3,0,0,1-2.27,1.75.33.33,0,0,0-.15,0,.16.16,0,0,0-.07.16,9.32,9.32,0,0,0,3.29,5.73A15.24,15.24,0,0,0,86.17,114.13Z" style="fill:#f0f0f0"></path></g></g></g></g></g></svg>
